/* XPM */
static char * fileopen[] = {
"22 22 4 1",
" 	c None",
".	c #4D4505",
"+	c #93830A",
"@	c #C1B707",
"                      ",
"                      ",
"   .....              ",
"   .+@+...........    ",
"   .@+@+@+@+@+@+@.    ",
"   .+@+@+@+@+@+@+.    ",
"   .@+@+@+@+@+@+@.    ",
"   .+@+@+.............",
"   .@+@+@.@+@+@+@+@+@.",
"   .+@+@..+@+@+@+@+@+.",
"   .@+@..+@+@+@+@+@+. ",
"   .+@+.+@+@+@+@+@+.  ",
"   .@+..@+@+@+@+@+@.  ",
"   .+@.@+@+@+@+@+@+.  ",
"   .@..+@+@+@+@+@+.   ",
"   .+.+@+@+@+@+@+@.   ",
"   ...@+@+@+@+@+@.    ",
"   ..++@+@+@+@+@+.    ",
"   ...............    ",
"                      ",
"                      ",
"                      "};
