/* XPM */
static char * filesave[] = {
"22 22 8 1",
" 	c None",
".	c #2A2A2A",
"+	c #7C653A",
"@	c #FFFFFF",
"#	c #CDCDCD",
"$	c #8B8B8B",
"%	c #939393",
"&	c #686868",
"                      ",
"                      ",
"   ................   ",
"   .+.@#@#@#@#@#.$.   ",
"   .+.#@#@#@#@#@...   ",
"   .+.@#@#@#@#@#.+.   ",
"   .+.#@#@#@#@#@.+.   ",
"   .+.@#@#@#@#@#.+.   ",
"   .+.#@#@#@#@#@.+.   ",
"   .+.@#@#@#@#@#.+.   ",
"   .+............+.   ",
"   .++++++++++++++.   ",
"   .++++++++++++++.   ",
"   .++.........+++.   ",
"   .++.%%%%.&&.+++.   ",
"   .++.%%%%.&&.+++.   ",
"   .++.%%%%.&&.+++.   ",
"   .++.%%%%.&&.+++.   ",
"   .++.%%%%.&&.+++.   ",
"    ...............   ",
"                      ",
"                      "};
