/* XPM */
static char * pen3[] = {
"22 22 5 1",
" 	c None",
".	c None",
"+	c #440E02",
"@	c #751302",
"#	c #F90A02",
"......................",
"......................",
"................++....",
"...............+@@+...",
"..............+@@++...",
"....#########+@@++##..",
"....#....#..+@@++..#..",
"....#....#.+@@++...#..",
"....#....#+@@++....#..",
"....#....+@@++#....#..",
"....#####+@++#######..",
"....#...++++..#....#..",
"....#...++....#....#..",
"....#....#....#....#..",
"....#....#....#....#..",
"....################..",
"....#....#....#....#..",
"....#....#....#....#..",
"....#....#....#....#..",
"....#....#....#....#..",
"....################..",
"......................"};
