/* XPM */
static char * quit[] = {
"22 22 2 1",
" 	c None",
".	c #700303",
"                      ",
"                      ",
"                      ",
"                      ",
"    ..          ..    ",
"     ..        ..     ",
"      ..      ..      ",
"       ..    ..       ",
"        ..  ..        ",
"         ....         ",
"          ..          ",
"         ....         ",
"        ..  ..        ",
"       ..    ..       ",
"      ..      ..      ",
"     ..        ..     ",
"    ..          ..    ",
"                      ",
"                      ",
"                      ",
"                      ",
"                      "};
